<svg width="332" height="76" viewBox="0 0 332 76" fill="none" xmlns="http://www.w3.org/2000/svg">
<path d="M7.506 61C6.894 61 6.39 60.802 5.994 60.406C5.598 60.01 5.4 59.506 5.4 58.894V20.932C5.4 20.32 5.598 19.816 5.994 19.42C6.39 19.024 6.894 18.826 7.506 18.826H17.604C20.232 18.826 22.572 19.384 24.624 20.5C26.676 21.58 28.278 23.11 29.43 25.09C30.618 27.034 31.212 29.284 31.212 31.84C31.212 34.288 30.618 36.466 29.43 38.374C28.278 40.282 26.676 41.776 24.624 42.856C22.572 43.936 20.232 44.476 17.604 44.476H9.612V58.894C9.612 59.506 9.414 60.01 9.018 60.406C8.622 60.802 8.118 61 7.506 61ZM30.078 61C29.61 61 29.232 60.91 28.944 60.73C28.692 60.55 28.458 60.28 28.242 59.92L17.874 43.396L22.086 42.316L31.752 57.76C32.292 58.624 32.382 59.38 32.022 60.028C31.698 60.676 31.05 61 30.078 61ZM9.612 40.426H17.604C19.44 40.426 21.06 40.066 22.464 39.346C23.904 38.59 25.038 37.564 25.866 36.268C26.694 34.972 27.108 33.496 27.108 31.84C27.108 30.076 26.694 28.528 25.866 27.196C25.038 25.828 23.904 24.766 22.464 24.01C21.06 23.254 19.44 22.876 17.604 22.876H9.612V40.426ZM51.6329 61.27C48.7169 61.27 46.1249 60.64 43.8569 59.38C41.6249 58.084 39.8609 56.302 38.5649 54.034C37.3049 51.766 36.6749 49.174 36.6749 46.258C36.6749 43.306 37.2689 40.714 38.4569 38.482C39.6809 36.214 41.3549 34.432 43.4789 33.136C45.6029 31.84 48.0509 31.192 50.8229 31.192C53.5589 31.192 55.9349 31.822 57.9509 33.082C60.0029 34.306 61.5869 36.016 62.7029 38.212C63.8189 40.408 64.3769 42.91 64.3769 45.718C64.3769 46.294 64.1969 46.762 63.8369 47.122C63.4769 47.446 63.0089 47.608 62.4329 47.608H39.4829V44.152H62.8649L60.5429 45.826C60.5789 43.738 60.2009 41.866 59.4089 40.21C58.6169 38.554 57.4829 37.258 56.0069 36.322C54.5669 35.386 52.8389 34.918 50.8229 34.918C48.7709 34.918 46.9709 35.404 45.4229 36.376C43.8749 37.348 42.6689 38.698 41.8049 40.426C40.9769 42.118 40.5629 44.062 40.5629 46.258C40.5629 48.454 41.0309 50.398 41.9669 52.09C42.9389 53.782 44.2529 55.114 45.9089 56.086C47.5649 57.058 49.4729 57.544 51.6329 57.544C52.9289 57.544 54.2249 57.328 55.5209 56.896C56.8529 56.428 57.9149 55.852 58.7069 55.168C59.1029 54.844 59.5529 54.682 60.0569 54.682C60.5609 54.646 60.9929 54.772 61.3529 55.06C61.8209 55.492 62.0549 55.96 62.0549 56.464C62.0909 56.968 61.8929 57.4 61.4609 57.76C60.2729 58.768 58.7609 59.614 56.9249 60.298C55.0889 60.946 53.3249 61.27 51.6329 61.27ZM81.7248 61.27C79.6008 61.27 77.4948 60.91 75.4068 60.19C73.3188 59.47 71.6268 58.39 70.3308 56.95C69.9348 56.518 69.7728 56.032 69.8448 55.492C69.9168 54.952 70.1868 54.484 70.6548 54.088C71.1588 53.728 71.6808 53.584 72.2208 53.656C72.7608 53.728 73.2108 53.962 73.5708 54.358C74.4348 55.366 75.5688 56.14 76.9728 56.68C78.4128 57.22 79.9968 57.49 81.7248 57.49C84.3888 57.49 86.3148 57.04 87.5028 56.14C88.6908 55.204 89.3028 54.088 89.3388 52.792C89.3388 51.496 88.7268 50.434 87.5028 49.606C86.2788 48.742 84.2628 48.076 81.4548 47.608C77.8188 47.032 75.1548 46.024 73.4628 44.584C71.7708 43.144 70.9248 41.434 70.9248 39.454C70.9248 37.618 71.4108 36.088 72.3828 34.864C73.3548 33.64 74.6508 32.722 76.2708 32.11C77.8908 31.498 79.6728 31.192 81.6168 31.192C84.0288 31.192 86.0988 31.606 87.8268 32.434C89.5908 33.262 91.0128 34.378 92.0928 35.782C92.4528 36.25 92.5968 36.736 92.5248 37.24C92.4528 37.744 92.1648 38.158 91.6608 38.482C91.2288 38.734 90.7248 38.824 90.1488 38.752C89.6088 38.644 89.1408 38.374 88.7448 37.942C87.8448 36.898 86.8008 36.142 85.6128 35.674C84.4248 35.17 83.0568 34.918 81.5088 34.918C79.5288 34.918 77.9448 35.332 76.7568 36.16C75.5688 36.952 74.9748 37.96 74.9748 39.184C74.9748 40.012 75.1908 40.732 75.6228 41.344C76.0908 41.956 76.8648 42.496 77.9448 42.964C79.0608 43.432 80.6088 43.828 82.5888 44.152C85.2888 44.584 87.4128 45.232 88.9608 46.096C90.5448 46.924 91.6608 47.914 92.3088 49.066C92.9928 50.182 93.3348 51.406 93.3348 52.738C93.3348 54.43 92.8308 55.924 91.8228 57.22C90.8508 58.48 89.4828 59.47 87.7188 60.19C85.9908 60.91 83.9928 61.27 81.7248 61.27ZM103.49 61C102.842 61 102.32 60.82 101.924 60.46C101.564 60.064 101.384 59.542 101.384 58.894V33.568C101.384 32.92 101.564 32.416 101.924 32.056C102.32 31.66 102.842 31.462 103.49 31.462C104.102 31.462 104.588 31.66 104.948 32.056C105.344 32.416 105.542 32.92 105.542 33.568V58.894C105.542 59.542 105.344 60.064 104.948 60.46C104.588 60.82 104.102 61 103.49 61ZM103.436 25.846C102.644 25.846 101.96 25.558 101.384 24.982C100.808 24.406 100.52 23.704 100.52 22.876C100.52 21.976 100.808 21.274 101.384 20.77C101.996 20.23 102.698 19.96 103.49 19.96C104.246 19.96 104.912 20.23 105.488 20.77C106.1 21.274 106.406 21.976 106.406 22.876C106.406 23.704 106.118 24.406 105.542 24.982C104.966 25.558 104.264 25.846 103.436 25.846ZM129.576 61.27C126.732 61.27 124.176 60.622 121.908 59.326C119.64 57.994 117.84 56.194 116.508 53.926C115.212 51.658 114.564 49.084 114.564 46.204C114.564 43.36 115.194 40.804 116.454 38.536C117.75 36.268 119.496 34.486 121.692 33.19C123.888 31.858 126.372 31.192 129.144 31.192C131.556 31.192 133.734 31.714 135.678 32.758C137.622 33.766 139.188 35.116 140.376 36.808V20.932C140.376 20.284 140.574 19.78 140.97 19.42C141.366 19.024 141.87 18.826 142.482 18.826C143.094 18.826 143.598 19.024 143.994 19.42C144.39 19.78 144.588 20.284 144.588 20.932V46.42C144.516 49.228 143.814 51.766 142.482 54.034C141.186 56.266 139.404 58.03 137.136 59.326C134.904 60.622 132.384 61.27 129.576 61.27ZM129.576 57.49C131.664 57.49 133.518 57.004 135.138 56.032C136.794 55.024 138.09 53.674 139.026 51.982C139.998 50.29 140.484 48.364 140.484 46.204C140.484 44.08 139.998 42.172 139.026 40.48C138.09 38.752 136.794 37.402 135.138 36.43C133.518 35.458 131.664 34.972 129.576 34.972C127.524 34.972 125.67 35.458 124.014 36.43C122.358 37.402 121.044 38.752 120.072 40.48C119.1 42.172 118.614 44.08 118.614 46.204C118.614 48.364 119.1 50.29 120.072 51.982C121.044 53.674 122.358 55.024 124.014 56.032C125.67 57.004 127.524 57.49 129.576 57.49ZM167.701 61.27C164.785 61.27 162.193 60.64 159.925 59.38C157.693 58.084 155.929 56.302 154.633 54.034C153.373 51.766 152.743 49.174 152.743 46.258C152.743 43.306 153.337 40.714 154.525 38.482C155.749 36.214 157.423 34.432 159.547 33.136C161.671 31.84 164.119 31.192 166.891 31.192C169.627 31.192 172.003 31.822 174.019 33.082C176.071 34.306 177.655 36.016 178.771 38.212C179.887 40.408 180.445 42.91 180.445 45.718C180.445 46.294 180.265 46.762 179.905 47.122C179.545 47.446 179.077 47.608 178.501 47.608H155.551V44.152H178.933L176.611 45.826C176.647 43.738 176.269 41.866 175.477 40.21C174.685 38.554 173.551 37.258 172.075 36.322C170.635 35.386 168.907 34.918 166.891 34.918C164.839 34.918 163.039 35.404 161.491 36.376C159.943 37.348 158.737 38.698 157.873 40.426C157.045 42.118 156.631 44.062 156.631 46.258C156.631 48.454 157.099 50.398 158.035 52.09C159.007 53.782 160.321 55.114 161.977 56.086C163.633 57.058 165.541 57.544 167.701 57.544C168.997 57.544 170.293 57.328 171.589 56.896C172.921 56.428 173.983 55.852 174.775 55.168C175.171 54.844 175.621 54.682 176.125 54.682C176.629 54.646 177.061 54.772 177.421 55.06C177.889 55.492 178.123 55.96 178.123 56.464C178.159 56.968 177.961 57.4 177.529 57.76C176.341 58.768 174.829 59.614 172.993 60.298C171.157 60.946 169.393 61.27 167.701 61.27ZM212.805 61C212.193 61 211.689 60.802 211.293 60.406C210.897 60.01 210.699 59.524 210.699 58.948V44.908C210.699 42.676 210.267 40.84 209.403 39.4C208.575 37.96 207.423 36.88 205.947 36.16C204.507 35.44 202.869 35.08 201.033 35.08C199.269 35.08 197.667 35.422 196.227 36.106C194.823 36.79 193.707 37.726 192.879 38.914C192.051 40.102 191.637 41.452 191.637 42.964H188.667C188.739 40.696 189.351 38.68 190.503 36.916C191.655 35.116 193.185 33.712 195.093 32.704C197.001 31.66 199.125 31.138 201.465 31.138C204.021 31.138 206.307 31.678 208.323 32.758C210.339 33.802 211.923 35.35 213.075 37.402C214.263 39.454 214.857 41.956 214.857 44.908V58.948C214.857 59.524 214.659 60.01 214.263 60.406C213.867 60.802 213.381 61 212.805 61ZM189.585 61C188.937 61 188.415 60.82 188.019 60.46C187.659 60.064 187.479 59.56 187.479 58.948V33.568C187.479 32.92 187.659 32.416 188.019 32.056C188.415 31.66 188.937 31.462 189.585 31.462C190.197 31.462 190.683 31.66 191.043 32.056C191.439 32.416 191.637 32.92 191.637 33.568V58.948C191.637 59.56 191.439 60.064 191.043 60.46C190.683 60.82 190.197 61 189.585 61ZM235.58 61C233.672 61 231.962 60.55 230.45 59.65C228.974 58.75 227.804 57.526 226.94 55.978C226.076 54.394 225.644 52.594 225.644 50.578V24.172C225.644 23.56 225.824 23.056 226.184 22.66C226.58 22.264 227.084 22.066 227.696 22.066C228.308 22.066 228.812 22.264 229.208 22.66C229.604 23.056 229.802 23.56 229.802 24.172V50.578C229.802 52.414 230.342 53.926 231.422 55.114C232.502 56.266 233.888 56.842 235.58 56.842H237.038C237.614 56.842 238.082 57.04 238.442 57.436C238.802 57.832 238.982 58.336 238.982 58.948C238.982 59.56 238.766 60.064 238.334 60.46C237.902 60.82 237.362 61 236.714 61H235.58ZM222.134 36.16C221.594 36.16 221.144 35.998 220.784 35.674C220.424 35.314 220.244 34.882 220.244 34.378C220.244 33.838 220.424 33.406 220.784 33.082C221.144 32.722 221.594 32.542 222.134 32.542H235.904C236.444 32.542 236.894 32.722 237.254 33.082C237.614 33.406 237.794 33.838 237.794 34.378C237.794 34.882 237.614 35.314 237.254 35.674C236.894 35.998 236.444 36.16 235.904 36.16H222.134ZM248.721 61C248.073 61 247.551 60.82 247.155 60.46C246.795 60.064 246.615 59.542 246.615 58.894V33.568C246.615 32.92 246.795 32.416 247.155 32.056C247.551 31.66 248.073 31.462 248.721 31.462C249.333 31.462 249.819 31.66 250.179 32.056C250.575 32.416 250.773 32.92 250.773 33.568V58.894C250.773 59.542 250.575 60.064 250.179 60.46C249.819 60.82 249.333 61 248.721 61ZM248.667 25.846C247.875 25.846 247.191 25.558 246.615 24.982C246.039 24.406 245.751 23.704 245.751 22.876C245.751 21.976 246.039 21.274 246.615 20.77C247.227 20.23 247.929 19.96 248.721 19.96C249.477 19.96 250.143 20.23 250.719 20.77C251.331 21.274 251.637 21.976 251.637 22.876C251.637 23.704 251.349 24.406 250.773 24.982C250.197 25.558 249.495 25.846 248.667 25.846ZM274.374 61.27C271.602 61.27 269.118 60.622 266.922 59.326C264.726 57.994 262.98 56.194 261.684 53.926C260.424 51.658 259.794 49.102 259.794 46.258C259.794 43.378 260.442 40.804 261.738 38.536C263.07 36.268 264.87 34.486 267.138 33.19C269.406 31.858 271.962 31.192 274.806 31.192C277.65 31.192 280.188 31.858 282.42 33.19C284.688 34.486 286.47 36.268 287.766 38.536C289.098 40.804 289.782 43.378 289.818 46.258L288.144 47.554C288.144 50.146 287.532 52.486 286.308 54.574C285.12 56.626 283.482 58.264 281.394 59.488C279.342 60.676 277.002 61.27 274.374 61.27ZM274.806 57.49C276.894 57.49 278.748 57.004 280.368 56.032C282.024 55.06 283.32 53.728 284.256 52.036C285.228 50.308 285.714 48.382 285.714 46.258C285.714 44.098 285.228 42.172 284.256 40.48C283.32 38.788 282.024 37.456 280.368 36.484C278.748 35.476 276.894 34.972 274.806 34.972C272.754 34.972 270.9 35.476 269.244 36.484C267.588 37.456 266.274 38.788 265.302 40.48C264.33 42.172 263.844 44.098 263.844 46.258C263.844 48.382 264.33 50.308 265.302 52.036C266.274 53.728 267.588 55.06 269.244 56.032C270.9 57.004 272.754 57.49 274.806 57.49ZM287.712 61C287.1 61 286.596 60.82 286.2 60.46C285.804 60.064 285.606 59.56 285.606 58.948V49.714L286.632 45.448L289.818 46.258V58.948C289.818 59.56 289.62 60.064 289.224 60.46C288.828 60.82 288.324 61 287.712 61ZM304.277 61C302.837 61 301.541 60.604 300.389 59.812C299.273 59.02 298.391 57.922 297.743 56.518C297.131 55.114 296.825 53.494 296.825 51.658V20.878C296.825 20.266 297.005 19.78 297.365 19.42C297.761 19.024 298.265 18.826 298.877 18.826C299.489 18.826 299.975 19.024 300.335 19.42C300.731 19.78 300.929 20.266 300.929 20.878V51.658C300.929 53.206 301.235 54.466 301.847 55.438C302.495 56.41 303.305 56.896 304.277 56.896H305.627C306.167 56.896 306.599 57.094 306.923 57.49C307.247 57.85 307.409 58.336 307.409 58.948C307.409 59.56 307.175 60.064 306.707 60.46C306.275 60.82 305.699 61 304.979 61H304.277Z" fill="white"/>
<path d="M7.3999 11C7.3999 11 17.8999 6.99997 40.3999 16.5C59.4889 24.5598 83.8999 20 96.8999 15C109.9 9.99997 125.79 5.13497 137.9 5.99997C158.9 7.49997 165.9 14.1904 173.9 18C191.94 26.5906 209.534 22.5623 229.4 17C241.9 13.5 261.4 3 261.4 3L282.9 15.5H288.9V3H298.9V21" stroke="white" stroke-width="4.1" stroke-linecap="round"/>
</svg>
